<svg width="85" height="15" viewBox="0 0 85 15" fill="none" xmlns="http://www.w3.org/2000/svg">
  <path d="M0 14V.8h5.5c1.8 0 3.6 0 4.8 1.8.4.4.8 1.3.8 2.7 0 1.8-.7 3-1.3 3.4-1 1-2.3 1.1-3.5 1.2H3.9v4H0zm5.4-7c.6 0 1.3-.1 1.8-.6.1-.1.3-.4.3-.8 0-.5-.2-.8-.3-.9-.6-.6-1.5-.5-2.2-.5H4v2.7h1.4zm12 7l-.1-1c-.5.4-1.4 1.2-3 1.2-.3 0-1.6 0-2.4-.7a3 3 0 0 1-1-2.4c0-.3 0-.8.6-1.4.7-.9 1.4-1.1 2.5-1.4l1.7-.2.7-.1.4-.2c.2-.1.3-.5.3-.7 0-.4-.5-.7-1.2-.7s-1 .2-1.1.5c-.1 0-.2.2-.2.5h-3.3c.1-.8.4-1.4.9-2C12.8 4.6 13.9 4 16 4c.4 0 2-.1 3.2.7.5.3.8.7 1 1.2.4.7.2 1.7.2 2.5V11c0 1.6.2 1.9.4 2.8h-3.4zm-.3-4.3l-1.5.5-.4.1c-.1 0-.7.2-.7.9 0 .3.2.9.9.9l.8-.1c.6-.2.7-.7.9-.8V9.7zM27.4 14V9.3c0 .6.1-1.8-.4-2-.1-.1-.5-.3-.8-.2-.5 0-1 .2-1.1.6-.2.5-.3 1.2-.2 1.8v4.4h-3.6V4.4h3.4v1.1c.5-.6 1-1.3 3-1.3 1.4 0 2.6.5 3 2l.2 1.5v6.2h-3.5zM47 7.1c0-.3-.3-1-1.2-1-.4 0-.7.2-.9.3 0 0-.2.2-.2.5a.6.6 0 0 0 .3.4l.8.3 1.4.3c1 .2 1.9.4 2.5 1.1.4.3.6.8.6 1 .2.4.1.8.1 1 0 1.1-.5 1.8-.8 2-.7.7-1.8 1.2-3.8 1.2-1 0-2.2-.3-3.2-.8-1.3-.8-1.4-2.2-1.5-2.6h3.4c0 .3.1.6.4.8.2.2.4.3 1 .3.8 0 1.2-.3 1.2-.6l-.1-.4c-.2-.3-.6-.4-1.2-.6l-2.2-.5c-.4-.2-2.2-.6-2.2-2.6 0-1.1.6-1.7.9-2 .6-.6 1.6-1 3.4-1 .4 0 2 0 3.3.8.4.2.6.5.9.9.3.5.3 1 .3 1.2h-3.2" fill="currentColor"></path>
  <path d="M59.3 12.8a5 5 0 0 1-3.7 1.4c-.6 0-2.3 0-3.6-1.5-.8-1-1.2-2.3-1.2-3.6 0-.4 0-1.1.3-2 .8-2 2.7-3 4.7-3 1.3 0 2.5.5 3.5 1.3a5 5 0 0 1 1.3 3.8c0 1.3-.4 2.6-1.3 3.6zm-2.6-5.7c-.3-.3-.8-.4-1-.4-.4 0-.6.3-.7.3-.5.4-.8 1-.8 2.1 0 1 .2 2.5 1.5 2.5.4 0 .8-.1 1-.4.3-.3.7-1 .6-2 0-.1 0-1.5-.6-2.1zm14.7-2.7h3.5V14h-3.5V4.4zm0-3.6h3.5v2.5h-3.5V.8zM81.6 8c-.3-1.1-.8-1.2-1.4-1.2-.6 0-.7.2-.9.3-.4.4-.6.9-.6 2 0 .1 0 1.7.8 2.3.3.2.4.2.7.2l.7-.1c.3-.2.7-.5.7-1.3H85c0 .2-.2 1-.5 1.6-.8 1.6-2.5 2.3-4.3 2.3l-1.5-.1a4.4 4.4 0 0 1-3-2.7c-.2-.4-.4-1-.4-2s.2-2 .6-2.7c.1-.2.4-.7.8-1 1-1 2.3-1.4 3.6-1.4a5 5 0 0 1 3.4 1.2c.4.3.6.7.8 1.2l.4 1.4h-3.3zM41 11.1V8.5c0-.8 0-1.9-.3-2.6-.2-.5-.5-.9-1-1.1-1-.8-2.8-.7-3.2-.7-2.1 0-3.2.6-3.9 1.3-.5.7-.6 1.3-.8 2H35c0-.1 0-.3.2-.5.1-.2.4-.5 1-.5.8 0 1.3.3 1.3.7 0 .2 0 .5-.2.7l-.6.2-.6.2-1.7.2c-1 .2-1.9.4-2.6 1.3-.5.7-.5 1.2-.5 1.5 0 1.3.6 2 1 2.3.8.7 2 .7 2.3.7 1.6 0 2.5-.7 3-1.1l.1.9h3.6c-.2-.6-.4-1-.4-2.9zm-4.3 1h-.8a1 1 0 0 1-.9-1c0-.6.6-.7.8-.8h.3l1.5-.6V11c-.1.2-.3.8-1 1M67.2 14V9.2c0 .5.2-1.8-.3-2-.2-.1-.5-.3-.9-.3s-.9.2-1 .6c-.3.6-.4 1.2-.3 1.8v4.5h-3.5V4.4h3.3v1c.5-.5 1-1.2 3-1.2 1.5 0 2.6.6 3 2l.2 1.4V14h-3.5" fill="currentColor"></path>
</svg>