<svg width="84" height="16" viewBox="0 0 84 16" fill="none" xmlns="http://www.w3.org/2000/svg">
  <path d="M48.7 12.4h-5.3v-3h5.3c.9 0 1.6.7 1.6 1.5s-.7 1.5-1.6 1.5zm-5.3-8.7h5.2A1.3 1.3 0 0 1 50 5c0 .7-.6 1.2-1.3 1.2h-5.2V3.7zm8.3 4.1c1-.7 1.4-1.8 1.4-3 0-2.4-2-4.3-4.5-4.3h-8.8v15.1H49c2.5 0 4.7-2 4.7-4.4 0-1.6-1-2.8-2-3.4zM65.4.4V9c0 2.6-1.6 3.7-3.4 3.7-1.9 0-3.4-1-3.4-3.7V.4h-3.8V9c0 5.5 3.2 7 7.2 7S69 14.5 69 9V.5h-3.7zm13.2 6c-3-.7-4-1-4-2 0-.9 1-1.3 2.8-1.3 1.7.1 3.3.6 4.8 1.4l1.2-3C81.6.6 79.4 0 76.6 0c-3.7 0-6 2.2-6 4.8 0 2.6 2 3.8 5.7 4.6 3 .6 3.7 1 3.7 1.9 0 1-1.2 1.2-2.7 1.2-2 0-4-.6-5.9-1.4l-1.1 3c2.2 1.1 4.7 1.8 7.2 1.8 4.6 0 6.5-2.2 6.5-4.7 0-2.3-1.6-4-5.4-4.9zm-71-6L0 15.7h4.5l1.2-2.4h5.2L9.3 9.9h-2l1.9-4.2 4.8 9.9h4.6L10.6.5h-3zm30.7 5.1c0-2.8-1.9-5-5.7-5h-7.9v15.1h3.7v-12h4.4c1.3 0 1.9 1 1.9 1.9 0 1-.6 1.7-2 1.7h-3l4.7 8.4h3.7L35 10.1a4.6 4.6 0 0 0 3.5-4.6zm-19 10.1h3.8V.5h-3.7v15.1z" fill="currentColor"></path>
</svg>